<?xml version="1.0" encoding="UTF-8"?>
<svg version="1.1" xmlns="http://www.w3.org/2000/svg" width="61" height="60">
<path d="M0 0 C3.65762503 1.54239344 6.91544734 3.54565255 10.25 5.6875 C11.12140625 6.21794922 11.9928125 6.74839844 12.890625 7.29492188 C17.44432377 10.12362957 21.61859238 12.77177476 25 17 C25.47566834 19.93253305 25.6579321 22.26729322 25.59375 25.1875 C25.59379028 25.96762451 25.59383057 26.74774902 25.59387207 27.55151367 C25.58852732 29.19555753 25.570989 30.83960163 25.54199219 32.48339844 C25.5001279 34.99233517 25.50092713 37.4985852 25.5078125 40.0078125 C25.497319 41.60939355 25.48438002 43.21096084 25.46875 44.8125 C25.46854858 45.55846436 25.46834717 46.30442871 25.46813965 47.07299805 C25.3675855 51.5233465 24.90488834 54.55740506 22 58 C17.54236577 60.76949277 12.39953187 60.30595211 7.31640625 60.30078125 C6.3832811 60.30506638 5.45015594 60.3093515 4.48875427 60.31376648 C2.51944793 60.3194977 0.55012043 60.32001896 -1.41918945 60.31567383 C-4.42370898 60.3125145 -7.42724275 60.33598598 -10.43164062 60.36132812 C-12.3489571 60.36360138 -14.2662762 60.36430449 -16.18359375 60.36328125 C-17.52447304 60.37709587 -17.52447304 60.37709587 -18.8924408 60.39118958 C-23.98447567 60.35362332 -27.64047982 59.93371165 -32 57 C-35.90897917 50.0232144 -35.44816587 42.70374784 -35.375 34.875 C-35.38660156 33.62589844 -35.39820313 32.37679687 -35.41015625 31.08984375 C-35.40628906 29.88199219 -35.40242188 28.67414062 -35.3984375 27.4296875 C-35.39505371 26.33897949 -35.39166992 25.24827148 -35.38818359 24.12451172 C-34.84264976 19.73347899 -33.30665594 16.35569159 -30.23046875 13.1640625 C-25.64573013 9.71016763 -20.90388869 6.54182619 -16 3.5625 C-14.329375 2.54349609 -14.329375 2.54349609 -12.625 1.50390625 C-8.12755076 -0.36195362 -4.79108802 -0.95461162 0 0 Z M-14 46 C-14 47.32 -14 48.64 -14 50 C-7.73 50 -1.46 50 5 50 C5 48.68 5 47.36 5 46 C-1.27 46 -7.54 46 -14 46 Z " fill="#CCCCDF" transform="translate(36,0)"/>
</svg>
